<svg xmlns="http://www.w3.org/2000/svg" viewBox="0 0 263.02 263.02"><defs>
  <style>.cls-1{fill:#fff;}</style></defs>
  <g id="Layer_2" data-name="Layer 2"><g id="Layer_1-2" data-name="Layer 1">
    <path class="cls-1" d="M201.14,47a15.42,15.42,0,1,0,15.42,15.42A15.42,15.42,0,0,0,201.14,47Z"/>
    <path class="cls-1" d="M132.59,66.74a64.77,64.77,0,1,0,64.77,64.77A64.84,64.84,0,0,0,132.59,66.74Zm0,106.26a41.49,41.49,0,1,1,41.49-41.49A41.53,41.53,0,0,1,132.59,173Z"/>
    <path class="cls-1" d="M184,263H79A79.09,79.09,0,0,1,0,184V79A79.09,79.09,0,0,1,79,0H184a79.1,79.1,0,0,1,79,79V184A79.1,79.1,0,0,1,184,263ZM79,24.74A54.32,54.32,0,0,0,24.74,79V184A54.32,54.32,0,0,0,79,238.27H184A54.32,54.32,0,0,0,238.27,184V79A54.32,54.32,0,0,0,184,24.74Z"/>
  </g></g>
</svg>
