<svg xmlns="http://www.w3.org/2000/svg" viewBox="0 0 244.66 201.37"><defs><style>.cls-1{fill:#fff;}</style></defs><g id="Layer_2" data-name="Layer 2"><g id="Layer_1-2" data-name="Layer 1"><path class="cls-1" d="M243.65,24.14a101.28,101.28,0,0,1-24.74,7.05c4-.67,9.82-7.87,12.16-10.78a45.54,45.54,0,0,0,8.22-15c.21-.43.37-1-.06-1.29a1.42,1.42,0,0,0-1.31.11,126.31,126.31,0,0,1-29.34,11.23,2,2,0,0,1-2-.54A23.6,23.6,0,0,0,204,12.32a52.11,52.11,0,0,0-14.21-8.71A49.54,49.54,0,0,0,168,.1a52.22,52.22,0,0,0-20.68,5.84,53.33,53.33,0,0,0-16.67,13.63,51.26,51.26,0,0,0-10,20,54.14,54.14,0,0,0-.52,21.07c.15,1.17,0,1.33-1,1.17-40.29-6-73.68-20.41-100.8-51.3-1.17-1.35-1.81-1.35-2.78.1C3.69,28.34,9.45,56.91,24.27,71c2,1.87,4,3.75,6.19,5.45-.8.17-10.66-.9-19.45-5.45-1.18-.74-1.77-.32-1.87,1a30.09,30.09,0,0,0,.32,5.77c2.27,18,14.76,34.7,31.85,41.21a30.41,30.41,0,0,0,6.47,2c-3.9.86-7.91,1.47-19.08.59-1.39-.26-1.92.43-1.39,1.77C35.7,146.16,53.82,153,67.39,156.84c1.82.32,3.64.32,5.46.75-.11.16-.22.16-.32.32-4.51,6.86-20.11,12-27.38,14.51a98.09,98.09,0,0,1-41.57,5.32c-2.24-.33-2.71-.31-3.31,0s-.08.91.64,1.49c2.83,1.87,5.72,3.53,8.66,5.13a136.7,136.7,0,0,0,27.79,11.12c49.94,13.79,106.2,3.66,143.7-33.6,29.45-29.26,39.77-69.61,39.77-110,0-1.58,1.86-2.45,3-3.29,7.67-5.75,13.85-12.64,19.56-20.33a6.23,6.23,0,0,0,1.3-3.9v-.21C244.66,23.49,244.64,23.68,243.65,24.14Z"/></g></g></svg>